<svg width="95" height="35" viewBox="0 0 95 35" fill="none" xmlns="http://www.w3.org/2000/svg">
<g clip-path="url(#clip0_0_1)">
<path fill-rule="evenodd" clip-rule="evenodd" d="M40.7122 20.4324C5.82946 21.8774 -9.88762 28.2857 9.07901 32.0867C43.9617 39.0918 118.9 31.0291 85.8076 23.8669C80.237 22.6627 71.5495 22.537 76.5896 23.7307C102.519 29.8982 36.1363 37.8876 14.6496 31.3746C1.31993 27.3223 30.9636 19.9716 70.2895 21.8774C75.6611 22.558 77.8496 22.1915 73.2737 21.3852C67.3052 20.3486 52.9145 19.9297 40.7122 20.4324Z" fill="#7DB3C2"/>
</g>
<path d="M7 28V0H9.28V26H21.44V28H7Z" fill="#213555"/>
<path d="M87.76 21.76C87.76 23.7067 87.3867 25.24 86.64 26.36C85.92 27.4533 84.8933 28.0933 83.56 28.28L83.04 26.8C83.4667 26.64 83.8267 26.4267 84.12 26.16C84.44 25.8667 84.6933 25.52 84.88 25.12C85.0933 24.6933 85.24 24.2133 85.32 23.68C85.4267 23.1467 85.48 22.5467 85.48 21.88V15.76C84.9733 16.32 84.32 16.7867 83.52 17.16C82.72 17.5067 81.8667 17.7733 80.96 17.96C80.0533 18.12 79.1733 18.2 78.32 18.2C76.5333 18.2 75.0133 17.8533 73.76 17.16C72.5333 16.4667 71.6 15.4933 70.96 14.24C70.32 12.9867 70 11.5067 70 9.8V0H72.24V9.88C72.24 11.24 72.4933 12.3733 73 13.28C73.5333 14.1867 74.2933 14.8667 75.28 15.32C76.2667 15.7733 77.44 16 78.8 16C79.5733 16 80.3467 15.92 81.12 15.76C81.92 15.5733 82.64 15.2933 83.28 14.92C83.9467 14.5467 84.48 14.04 84.88 13.4C85.28 12.76 85.48 11.9867 85.48 11.08V0H87.76V21.76Z" fill="#213555"/>
<path d="M60.84 0C62.3333 0 63.6 0.253333 64.64 0.76C65.7067 1.24 66.52 1.98667 67.08 3C67.64 3.98667 67.92 5.25333 67.92 6.8C67.92 7.6 67.8133 8.34667 67.6 9.04C67.3867 9.70667 67.08 10.32 66.68 10.88C66.28 11.4133 65.7867 11.88 65.2 12.28C65.9733 12.6267 66.68 13.1333 67.32 13.8C67.96 14.4667 68.4667 15.2933 68.84 16.28C69.2133 17.24 69.4 18.36 69.4 19.64C69.4 21.3733 69.08 22.8667 68.44 24.12C67.8267 25.3733 66.92 26.3333 65.72 27C64.52 27.6667 63.0267 28 61.24 28H52V0H60.84ZM60.8 11.52C61.8933 11.52 62.7867 11.3333 63.48 10.96C64.1733 10.56 64.6933 10 65.04 9.28C65.3867 8.56 65.56 7.73333 65.56 6.8C65.56 5.76 65.3733 4.89333 65 4.2C64.6267 3.50667 64.0667 2.98667 63.32 2.64C62.5733 2.29333 61.64 2.12 60.52 2.12H54.28V11.52H60.8ZM61.16 25.88C62.44 25.88 63.5067 25.6533 64.36 25.2C65.2133 24.72 65.8533 24 66.28 23.04C66.7333 22.08 66.96 20.8933 66.96 19.48C66.96 18.44 66.76 17.48 66.36 16.6C65.9867 15.72 65.4133 15.0267 64.64 14.52C63.8667 13.9867 62.92 13.72 61.8 13.72H54.28V25.88H61.16Z" fill="#213555"/>
<path d="M51.038 3.30097C50.5316 3.01618 49.9873 2.78317 49.4051 2.60194C48.8481 2.42071 48.2658 2.29126 47.6582 2.21359C47.0759 2.13592 46.481 2.09709 45.8734 2.09709C45.1899 2.09709 44.481 2.16181 43.7468 2.29126C43.0127 2.42071 42.3165 2.65372 41.6582 2.99029C41.0253 3.30097 40.5063 3.7411 40.1013 4.31068C39.7215 4.88026 39.5316 5.59223 39.5316 6.4466C39.5316 7.27508 39.7342 7.98705 40.1392 8.58252C40.5443 9.17799 41.0886 9.69579 41.7722 10.1359C42.481 10.5761 43.2532 10.9773 44.0886 11.3398C44.9494 11.7023 45.8354 12.0647 46.7468 12.4272C47.6835 12.7896 48.5696 13.2039 49.4051 13.6699C50.2658 14.11 51.038 14.6408 51.7215 15.2621C52.4304 15.8576 52.9873 16.5955 53.3924 17.4757C53.7975 18.3301 54 19.3528 54 20.5437C54 21.8382 53.7468 22.9644 53.2405 23.9223C52.7342 24.8544 52.0506 25.6311 51.1899 26.2524C50.3291 26.8479 49.3671 27.288 48.3038 27.5728C47.2405 27.8576 46.1519 28 45.038 28C43.8481 28 42.7089 27.8576 41.6202 27.5728C40.5316 27.288 39.519 26.8479 38.5823 26.2524C37.6456 25.657 36.7848 24.8932 36 23.9612L37.3291 22.6019C37.8608 23.3269 38.557 23.9353 39.4177 24.4272C40.2785 24.9191 41.1899 25.2945 42.1519 25.5534C43.1139 25.7864 44.0253 25.9029 44.8861 25.9029C45.7721 25.9029 46.6202 25.7994 47.4304 25.5922C48.2658 25.3851 49 25.0615 49.6329 24.6214C50.2911 24.1812 50.7975 23.5987 51.1519 22.8738C51.5316 22.1489 51.7215 21.2686 51.7215 20.233C51.7215 19.3528 51.519 18.6019 51.1139 17.9806C50.7089 17.3333 50.1645 16.7767 49.481 16.3107C48.7975 15.8188 48.0253 15.3786 47.1645 14.9903C46.3038 14.6019 45.4177 14.2265 44.5063 13.8641C43.6203 13.5016 42.7468 13.1133 41.8861 12.699C41.0253 12.2589 40.2532 11.767 39.5696 11.2233C38.8861 10.6796 38.3418 10.0324 37.9367 9.28155C37.5316 8.53075 37.3291 7.65049 37.3291 6.64078C37.3291 5.42395 37.5696 4.38835 38.0506 3.53398C38.557 2.67961 39.2152 1.99353 40.0253 1.47573C40.8608 0.957929 41.7721 0.582524 42.7595 0.349515C43.7721 0.116505 44.7975 0 45.8354 0C46.519 0 47.1899 0.05178 47.8481 0.15534C48.5063 0.2589 49.1519 0.41424 49.7848 0.62136C50.443 0.828479 51.0633 1.10032 51.6456 1.43689L51.038 3.30097Z" fill="#213555"/>
<path d="M39 20.2419C39 21.9222 38.6357 23.3399 37.9071 24.4951C37.2056 25.6503 36.2206 26.5298 34.9524 27.1336C33.6841 27.7112 32.2135 28 30.5405 28C28.8675 28 27.3833 27.7112 26.0881 27.1336C24.7928 26.556 23.7809 25.6896 23.0524 24.5345C22.3508 23.3793 22 21.9484 22 20.2419V0H24.2667V20.2025C24.2667 21.4627 24.523 22.5129 25.0357 23.353C25.5754 24.1932 26.304 24.8364 27.2214 25.2827C28.1659 25.7028 29.2587 25.9128 30.5 25.9128C31.7413 25.9128 32.8206 25.7028 33.7381 25.2827C34.6825 24.8626 35.4111 24.2325 35.9238 23.3924C36.4635 22.526 36.7333 21.4627 36.7333 20.2025V0H39V20.2419Z" fill="#213555"/>
<rect x="46" width="14" height="2" fill="#213555"/>
<rect x="31" y="26" width="14" height="2" fill="#213555"/>
<rect x="35" y="25" width="5" height="2" fill="#213555"/>
<rect x="50.8712" y="1" width="3.55966" height="2" transform="rotate(25.8218 50.8712 1)" fill="#213555"/>
<defs>
<clipPath id="clip0_0_1">
<rect width="95" height="15" fill="white" transform="translate(0 20)"/>
</clipPath>
</defs>
</svg>
