<svg width="201" height="47" viewBox="0 0 201 47" fill="none" xmlns="http://www.w3.org/2000/svg">
<circle cx="23" cy="24" r="23" fill="black"/>
<g clip-path="url(#clip0_0_1)">
<path fill-rule="evenodd" clip-rule="evenodd" d="M22.5777 31.2334L16.759 25.4482C17.3938 24.3782 18.0261 23.2718 18.654 22.1734C20.7415 18.5212 22.7794 14.9558 24.6929 13.0988C29.8886 7.87288 37.0348 10.8737 37.0348 10.8737C37.0348 10.8737 40.0769 18.0025 34.881 23.2283C33.0503 25.1367 29.5527 27.1643 25.9405 29.2584C24.8151 29.9108 23.6784 30.5697 22.5777 31.2334ZM26.958 17.7339C26.9528 15.9305 28.4106 14.4642 30.2142 14.459C32.0176 14.4538 33.4839 15.9116 33.4891 17.7151C33.4943 19.5186 32.0364 20.9848 30.233 20.99C28.4295 20.9952 26.9633 19.5374 26.958 17.7339ZM18.5108 17.2796C15.5813 16.5091 12.8387 17.9594 10.408 20.202C9.91909 20.6531 10.0237 21.4393 10.5945 21.7809L14.5348 24.1391L14.5394 24.1314C15.104 23.1796 15.7351 22.0772 16.3745 20.9602C17.1046 19.6848 17.8457 18.39 18.5108 17.2796ZM23.8996 33.4498L26.2806 37.3763C26.6255 37.9452 27.4123 38.0453 27.8606 37.5539C30.0899 35.1094 31.5244 32.3575 30.7354 29.4314C29.6608 30.0832 28.5309 30.7395 27.4116 31.3885L27.2408 31.4875C26.1102 32.143 24.9913 32.7916 23.9102 33.4434L23.8996 33.4498ZM14.4692 29.3566C15.0236 29.3452 15.5745 29.4456 16.0893 29.6518C16.604 29.858 17.072 30.1657 17.4652 30.5567C17.8584 30.9477 18.1689 31.4138 18.378 31.9275C18.5872 32.4409 18.6908 32.9912 18.6826 33.5458C18.6744 34.1002 18.5546 34.6472 18.3304 35.1545C18.1073 35.6591 17.7854 36.1138 17.3837 36.4918C16.9272 36.9316 16.2117 37.2766 15.5483 37.5423C14.8409 37.826 14.0335 38.0798 13.2796 38.2878C12.5232 38.4966 11.8007 38.6649 11.255 38.7749C10.984 38.8294 10.7449 38.872 10.5617 38.8975C10.4737 38.9097 10.3765 38.9211 10.2868 38.9253C10.2461 38.9273 10.1726 38.9298 10.0885 38.922C10.0482 38.9181 9.9702 38.9091 9.87734 38.8817C9.81605 38.8635 9.57795 38.7917 9.3791 38.5611C9.20878 38.3636 9.16197 38.157 9.15069 38.1073C9.13262 38.0277 9.12697 37.9602 9.1248 37.9243C9.1203 37.8499 9.12335 37.7841 9.12577 37.7448C9.13102 37.66 9.14246 37.5664 9.15495 37.4788C9.1808 37.2973 9.22296 37.0599 9.27706 36.7893C9.38589 36.245 9.55141 35.5248 9.75689 34.7705C9.96165 34.0186 10.2114 33.2135 10.4911 32.5075C10.7536 31.8448 11.0944 31.1305 11.5308 30.6724C11.9065 30.2685 12.3593 29.944 12.8625 29.7181C13.3684 29.4909 13.9148 29.368 14.4692 29.3566Z" fill="white"/>
</g>
<circle cx="4" cy="24" r="1" fill="white"/>
<circle cx="7.5" cy="18.5" r="0.5" fill="white"/>
<circle cx="44.5" cy="27.5" r="0.5" fill="white"/>
<circle cx="24" cy="6" r="1" fill="white"/>
<circle cx="15" cy="45" r="1" fill="white"/>
<circle cx="33" cy="40" r="1" fill="white"/>
<circle cx="16.5" cy="5.5" r="0.5" fill="white"/>
<circle cx="29.5" cy="42.5" r="0.5" fill="white"/>
<circle cx="20" cy="2" r="2" fill="white"/>
<path d="M60.4844 28.8438C60.5781 28.3542 60.5417 27.9375 60.375 27.5938C60.2188 27.25 59.9792 26.9583 59.6562 26.7188C59.3438 26.4792 58.9844 26.276 58.5781 26.1094C58.1823 25.9323 57.7969 25.7708 57.4219 25.625C56.6094 25.3021 55.8073 24.9375 55.0156 24.5312C54.224 24.1146 53.5052 23.625 52.8594 23.0625C52.2135 22.5 51.7083 21.8438 51.3438 21.0938C50.9896 20.3438 50.8385 19.4635 50.8906 18.4531C50.9635 17.2969 51.2917 16.3021 51.875 15.4688C52.4583 14.6354 53.2031 13.9583 54.1094 13.4375C55.026 12.9062 56.0104 12.5208 57.0625 12.2812C58.125 12.0312 59.1615 11.9167 60.1719 11.9375C61.6094 11.9583 62.8906 12.25 64.0156 12.8125C65.151 13.375 66.0417 14.1823 66.6875 15.2344C67.3333 16.276 67.6458 17.5365 67.625 19.0156H62.3281C62.349 18.4323 62.2708 17.9271 62.0938 17.5C61.9271 17.0625 61.651 16.724 61.2656 16.4844C60.8802 16.2344 60.3802 16.1042 59.7656 16.0938C59.2552 16.0833 58.7448 16.1667 58.2344 16.3438C57.724 16.5104 57.2812 16.7708 56.9062 17.125C56.5312 17.4792 56.2917 17.9375 56.1875 18.5C56.1146 18.9271 56.1823 19.3021 56.3906 19.625C56.599 19.9375 56.8854 20.2083 57.25 20.4375C57.6146 20.6562 57.9948 20.8438 58.3906 21C58.7969 21.1562 59.151 21.2917 59.4531 21.4062C60.3073 21.7292 61.125 22.1094 61.9062 22.5469C62.6979 22.974 63.3958 23.4792 64 24.0625C64.6146 24.6458 65.0833 25.3281 65.4062 26.1094C65.7396 26.8802 65.875 27.776 65.8125 28.7969C65.7292 29.974 65.4167 30.9792 64.875 31.8125C64.3333 32.6458 63.6354 33.3229 62.7812 33.8438C61.9271 34.3646 60.9896 34.7448 59.9688 34.9844C58.9479 35.224 57.9115 35.3385 56.8594 35.3281C55.6823 35.3073 54.5833 35.1302 53.5625 34.7969C52.5417 34.4531 51.651 33.9583 50.8906 33.3125C50.1302 32.6562 49.5417 31.8542 49.125 30.9062C48.7083 29.9479 48.5104 28.849 48.5312 27.6094L53.8906 27.625C53.8594 28.2083 53.8958 28.724 54 29.1719C54.1146 29.6094 54.3021 29.9792 54.5625 30.2812C54.8333 30.5729 55.1823 30.7969 55.6094 30.9531C56.0365 31.099 56.5521 31.1719 57.1562 31.1719C57.6667 31.1719 58.1562 31.0938 58.625 30.9375C59.1042 30.7708 59.5104 30.5156 59.8438 30.1719C60.1771 29.8281 60.3906 29.3854 60.4844 28.8438ZM78.8438 18.0938L78.2031 21.75H68.2969L68.9375 18.0938H78.8438ZM71.7344 13.8906H76.875L74.1875 29.5156C74.1458 29.8802 74.1458 30.1823 74.1875 30.4219C74.2292 30.651 74.3385 30.8281 74.5156 30.9531C74.7031 31.0677 74.9896 31.1354 75.375 31.1562C75.5938 31.1667 75.8125 31.1615 76.0312 31.1406C76.25 31.1198 76.4688 31.099 76.6875 31.0781L76.3281 34.8906C75.8802 35.0365 75.4219 35.1406 74.9531 35.2031C74.4948 35.2656 74.026 35.2969 73.5469 35.2969C72.4844 35.276 71.5938 35.0625 70.875 34.6562C70.1667 34.2396 69.651 33.651 69.3281 32.8906C69.0156 32.1198 68.9062 31.2031 69 30.1406L71.7344 13.8906ZM88.2656 30.625L90.4375 18.0938H95.5938L92.6562 35H87.8594L88.2656 30.625ZM89.2344 27.4375L90.5625 27.4062C90.4583 28.3646 90.25 29.3177 89.9375 30.2656C89.625 31.2135 89.1927 32.0729 88.6406 32.8438C88.0885 33.6146 87.401 34.2292 86.5781 34.6875C85.7656 35.1354 84.8021 35.349 83.6875 35.3281C82.7604 35.3073 81.974 35.1302 81.3281 34.7969C80.6927 34.4635 80.1823 34.0104 79.7969 33.4375C79.4115 32.8542 79.151 32.1875 79.0156 31.4375C78.8802 30.6875 78.8542 29.8854 78.9375 29.0312L80.7656 18.0938H85.9062L84.0469 29.0938C84.0156 29.3958 84.0156 29.6771 84.0469 29.9375C84.0885 30.1979 84.1667 30.4271 84.2812 30.625C84.4062 30.8125 84.5781 30.9635 84.7969 31.0781C85.0156 31.1927 85.2969 31.2552 85.6406 31.2656C86.4219 31.2969 87.0573 31.1354 87.5469 30.7812C88.0365 30.4167 88.4115 29.9375 88.6719 29.3438C88.9427 28.75 89.1302 28.1146 89.2344 27.4375ZM105.609 30.8281L109.047 11H114.219L110.062 35H105.453L105.609 30.8281ZM96.2656 26.875L96.2969 26.5312C96.4219 25.5 96.6562 24.4583 97 23.4062C97.3438 22.3542 97.8125 21.3958 98.4062 20.5312C99.0104 19.6667 99.7552 18.9792 100.641 18.4688C101.536 17.9583 102.599 17.724 103.828 17.7656C104.87 17.8073 105.724 18.1198 106.391 18.7031C107.057 19.2865 107.573 20.026 107.938 20.9219C108.302 21.8073 108.552 22.7396 108.688 23.7188C108.823 24.6979 108.88 25.599 108.859 26.4219L108.812 26.8438C108.656 27.7292 108.385 28.6719 108 29.6719C107.625 30.6615 107.13 31.5938 106.516 32.4688C105.911 33.3333 105.193 34.0365 104.359 34.5781C103.526 35.1094 102.583 35.3594 101.531 35.3281C100.385 35.2969 99.4479 35.0208 98.7188 34.5C97.9896 33.9792 97.4271 33.3021 97.0312 32.4688C96.6458 31.6354 96.3958 30.7292 96.2812 29.75C96.1771 28.7708 96.1719 27.8125 96.2656 26.875ZM101.453 26.5156L101.422 26.8438C101.391 27.2188 101.365 27.651 101.344 28.1406C101.323 28.6302 101.349 29.1094 101.422 29.5781C101.505 30.0469 101.677 30.4427 101.938 30.7656C102.208 31.0781 102.609 31.25 103.141 31.2812C103.911 31.3125 104.542 31.1302 105.031 30.7344C105.531 30.3385 105.911 29.8333 106.172 29.2188C106.443 28.5938 106.615 27.9531 106.688 27.2969L106.828 26.0469C106.88 25.6198 106.906 25.1667 106.906 24.6875C106.917 24.2083 106.865 23.7552 106.75 23.3281C106.635 22.901 106.427 22.5469 106.125 22.2656C105.823 21.9844 105.385 21.8385 104.812 21.8281C104.208 21.8073 103.698 21.9479 103.281 22.25C102.875 22.5521 102.547 22.9479 102.297 23.4375C102.057 23.9167 101.87 24.4323 101.734 24.9844C101.609 25.526 101.516 26.0365 101.453 26.5156ZM118.344 32.7656L125.062 18.0938H130.734L120.828 37.5312C120.526 38.1771 120.182 38.7656 119.797 39.2969C119.422 39.8281 118.995 40.2865 118.516 40.6719C118.036 41.0573 117.495 41.3542 116.891 41.5625C116.286 41.7708 115.604 41.875 114.844 41.875C114.448 41.875 114.062 41.8385 113.688 41.7656C113.312 41.7031 112.938 41.625 112.562 41.5312L112.953 37.75C113.057 37.7604 113.161 37.7656 113.266 37.7656C113.37 37.776 113.469 37.7812 113.562 37.7812C114 37.7812 114.391 37.7344 114.734 37.6406C115.089 37.5573 115.401 37.4062 115.672 37.1875C115.953 36.9688 116.198 36.6667 116.406 36.2812L118.344 32.7656ZM119.766 18.0938L120.984 30.1875L120.594 35.5H117.25L114.438 18.0938H119.766ZM133.203 12.25L141.625 12.2656C143.01 12.2865 144.286 12.5365 145.453 13.0156C146.62 13.4948 147.536 14.2292 148.203 15.2188C148.87 16.1979 149.151 17.4531 149.047 18.9844C148.953 20.2448 148.672 21.3073 148.203 22.1719C147.734 23.026 147.099 23.7552 146.297 24.3594C145.495 24.9635 144.552 25.5 143.469 25.9688L141.531 26.9688H133.969L134.688 22.7344L139.828 22.7656C140.516 22.7552 141.125 22.6198 141.656 22.3594C142.198 22.099 142.641 21.7292 142.984 21.25C143.328 20.7708 143.547 20.1875 143.641 19.5C143.724 18.9375 143.703 18.4375 143.578 18C143.453 17.5521 143.214 17.1979 142.859 16.9375C142.505 16.6771 142.036 16.5312 141.453 16.5L137.828 16.4844L134.609 35H129.266L133.203 12.25ZM141.469 35L138.328 24.9375L143.75 24.9062L147.172 34.7344V35H141.469ZM157.641 35.3125C156.474 35.2917 155.411 35.0781 154.453 34.6719C153.495 34.2552 152.682 33.6823 152.016 32.9531C151.349 32.224 150.854 31.3698 150.531 30.3906C150.219 29.401 150.104 28.3229 150.188 27.1562L150.25 26.5469C150.375 25.3177 150.667 24.1719 151.125 23.1094C151.583 22.0365 152.198 21.099 152.969 20.2969C153.74 19.4844 154.646 18.8542 155.688 18.4062C156.74 17.9583 157.917 17.75 159.219 17.7812C160.396 17.8021 161.411 18.0365 162.266 18.4844C163.13 18.9323 163.833 19.5417 164.375 20.3125C164.917 21.0729 165.292 21.9479 165.5 22.9375C165.719 23.9167 165.771 24.9583 165.656 26.0625L165.359 28.2031H151.922L152.453 24.9062L160.734 24.9219L160.828 24.4688C160.901 23.9792 160.88 23.5365 160.766 23.1406C160.651 22.7448 160.438 22.4323 160.125 22.2031C159.812 21.9635 159.391 21.8333 158.859 21.8125C158.214 21.8021 157.677 21.9427 157.25 22.2344C156.833 22.526 156.495 22.9115 156.234 23.3906C155.984 23.8698 155.792 24.3906 155.656 24.9531C155.521 25.5052 155.422 26.0365 155.359 26.5469L155.297 27.1406C155.255 27.651 155.271 28.1458 155.344 28.625C155.417 29.1042 155.562 29.5365 155.781 29.9219C156.01 30.3073 156.318 30.6198 156.703 30.8594C157.089 31.0885 157.573 31.2135 158.156 31.2344C158.938 31.2552 159.667 31.1094 160.344 30.7969C161.021 30.4844 161.63 30.0573 162.172 29.5156L164.312 32.3594C163.844 33.0677 163.24 33.6406 162.5 34.0781C161.76 34.5052 160.964 34.8177 160.109 35.0156C159.266 35.224 158.443 35.3229 157.641 35.3125ZM173.719 21.625L170.266 41.5H165.125L169.188 18.0938H173.953L173.719 21.625ZM182.938 26.25L182.891 26.5781C182.776 27.599 182.542 28.6302 182.188 29.6719C181.844 30.7135 181.37 31.6667 180.766 32.5312C180.172 33.3958 179.432 34.0885 178.547 34.6094C177.661 35.1198 176.62 35.3594 175.422 35.3281C174.37 35.2969 173.51 35.0052 172.844 34.4531C172.177 33.8906 171.656 33.1823 171.281 32.3281C170.917 31.4635 170.661 30.5521 170.516 29.5938C170.38 28.625 170.323 27.724 170.344 26.8906L170.391 26.4375C170.547 25.5208 170.807 24.5521 171.172 23.5312C171.536 22.5104 172.016 21.5625 172.609 20.6875C173.203 19.8021 173.917 19.0885 174.75 18.5469C175.583 17.9948 176.552 17.7344 177.656 17.7656C178.812 17.7969 179.76 18.0729 180.5 18.5938C181.24 19.1042 181.802 19.776 182.188 20.6094C182.573 21.4323 182.818 22.3385 182.922 23.3281C183.026 24.3177 183.031 25.2917 182.938 26.25ZM177.766 26.5625L177.797 26.2344C177.828 25.8594 177.854 25.4271 177.875 24.9375C177.896 24.4479 177.865 23.9688 177.781 23.5C177.708 23.0312 177.536 22.6406 177.266 22.3281C177.005 22.0052 176.604 21.8333 176.062 21.8125C175.427 21.7812 174.896 21.8802 174.469 22.1094C174.042 22.3385 173.693 22.6562 173.422 23.0625C173.161 23.4688 172.958 23.9271 172.812 24.4375C172.667 24.9375 172.562 25.4531 172.5 25.9844L172.359 27.2656C172.286 27.8594 172.271 28.4635 172.312 29.0781C172.354 29.6823 172.531 30.1927 172.844 30.6094C173.167 31.026 173.708 31.2448 174.469 31.2656C175.073 31.276 175.573 31.1302 175.969 30.8281C176.375 30.526 176.698 30.1302 176.938 29.6406C177.188 29.151 177.375 28.6354 177.5 28.0938C177.625 27.5417 177.714 27.0312 177.766 26.5625ZM184.516 26.8125L184.547 26.4844C184.682 25.2656 184.979 24.125 185.438 23.0625C185.896 22 186.505 21.0677 187.266 20.2656C188.036 19.4635 188.943 18.8438 189.984 18.4062C191.026 17.9583 192.193 17.75 193.484 17.7812C194.724 17.8021 195.797 18.0417 196.703 18.5C197.609 18.9583 198.354 19.5833 198.938 20.375C199.521 21.1562 199.932 22.0625 200.172 23.0938C200.422 24.1146 200.495 25.2031 200.391 26.3594L200.359 26.7031C200.224 27.9115 199.922 29.0417 199.453 30.0938C198.984 31.1458 198.365 32.0677 197.594 32.8594C196.833 33.651 195.932 34.2656 194.891 34.7031C193.849 35.1406 192.688 35.3438 191.406 35.3125C190.188 35.2917 189.12 35.0573 188.203 34.6094C187.297 34.151 186.552 33.5365 185.969 32.7656C185.385 31.9844 184.969 31.0885 184.719 30.0781C184.479 29.0573 184.411 27.9688 184.516 26.8125ZM189.688 26.4844L189.656 26.8125C189.625 27.2396 189.604 27.7083 189.594 28.2188C189.594 28.7188 189.651 29.2031 189.766 29.6719C189.88 30.1302 190.089 30.5104 190.391 30.8125C190.703 31.1042 191.151 31.2604 191.734 31.2812C192.359 31.3021 192.88 31.1719 193.297 30.8906C193.724 30.6094 194.068 30.2344 194.328 29.7656C194.589 29.2969 194.786 28.7917 194.922 28.25C195.068 27.7083 195.167 27.1875 195.219 26.6875L195.25 26.3594C195.281 25.9427 195.297 25.4792 195.297 24.9688C195.307 24.4479 195.255 23.9531 195.141 23.4844C195.026 23.0156 194.812 22.6302 194.5 22.3281C194.188 22.0156 193.74 21.849 193.156 21.8281C192.531 21.8073 192.005 21.9427 191.578 22.2344C191.161 22.526 190.823 22.9115 190.562 23.3906C190.302 23.8594 190.104 24.3698 189.969 24.9219C189.833 25.4635 189.74 25.9844 189.688 26.4844Z" fill="black"/>
<defs>
<clipPath id="clip0_0_1">
<rect width="28.9037" height="28.9037" fill="white" transform="translate(9 10.0834) rotate(-0.165412)"/>
</clipPath>
</defs>
</svg>
